# xmcd CD database file
#
# Track frame offsets:
#	150
#	26832
#	55450
#	72372
#	97107
#	174882
#
# Disc length: 2582 seconds
#
# Revision: 0
# Processed by: cddbd v1.5.2PL0 Copyright (c) Steve Scherf et al.
# Submitted via: CDex 1.70beta2
#
DISCID=500a1406
DTITLE=前田憲男 - ラプソディー・イン・ブルー
DYEAR=1900
DGENRE=Jazz
TTITLE0=01_ストライク・アップ・ザ・バンド
TTITLE1=02_サマータイム
TTITLE2=03_スワニー
TTITLE3=04_アイ・ゴッド・リズム
TTITLE4=05_ラプソディー・イン・ブルー
TTITLE5=06_ス・ワンダフル
EXTD=
EXTT0=
EXTT1=
EXTT2=
EXTT3=
EXTT4=
EXTT5=
PLAYORDER=
